<svg id="Layer_1" data-name="Layer 1" xmlns="http://www.w3.org/2000/svg" viewBox="0 0 855.82 275.57"><defs><style>.cls-1{fill:#fff;}</style></defs><title>keyboard</title><path class="cls-1" d="M501.8,301.84H695c5.28,0,6.32,1.12,6.32,6.89v36.2c0,5.63-1.17,6.87-6.42,6.87H308.24c-5.19,0-6.23-1.12-6.24-6.71v-37c0-5.09,1.09-6.25,5.84-6.25Z" transform="translate(-74.43 -76.24)"/><path class="cls-1" d="M871.68,226.66h52.41c4.92,0,6.14,1.21,6.15,6.11q0,19,0,38c0,4.32-1.41,5.79-5.72,5.79q-53.21,0-106.42,0c-4.12,0-5.6-1.5-5.61-5.63q0-19.28,0-38.57c0-4.39,1.31-5.73,5.71-5.74Q844.95,226.64,871.68,226.66Z" transform="translate(-74.43 -76.24)"/><path class="cls-1" d="M871.05,301.84h52.39c4.42,0,5.79,1.28,5.8,5.64q0,19.42,0,38.83c0,3.93-1.55,5.48-5.51,5.48q-52.92,0-105.85,0c-3.86,0-5.38-1.6-5.39-5.59q0-19.43,0-38.83c0-4.16,1.39-5.52,5.63-5.53Z" transform="translate(-74.43 -76.24)"/><path class="cls-1" d="M132.91,301.84H185.3c4.58,0,5.85,1.25,5.85,5.83q0,19.15,0,38.3c0,4.32-1.43,5.82-5.67,5.82q-52.78,0-105.58,0c-3.92,0-5.45-1.55-5.45-5.52q0-19.54,0-39.1c0-4,1.42-5.33,5.54-5.34Z" transform="translate(-74.43 -76.24)"/><path class="cls-1" d="M132.88,226.66h51.9c5.25,0,6.37,1.14,6.38,6.41q0,18.88,0,37.79c0,4.31-1.39,5.75-5.74,5.75q-52.69,0-105.39,0c-4.12,0-5.57-1.49-5.58-5.65q0-19.29,0-38.59c0-4.37,1.31-5.69,5.74-5.7Q106.54,226.64,132.88,226.66Z" transform="translate(-74.43 -76.24)"/><path class="cls-1" d="M115.8,201.43q-17.56,0-35.13,0c-5.06,0-6.23-1.21-6.23-6.31q0-18.88,0-37.79c0-4.44,1.41-5.89,5.89-5.89q35.92,0,71.85,0c4.11,0,5.61,1.5,5.62,5.68q.06,19.42,0,38.86c0,4-1.51,5.43-5.81,5.44C139.93,201.45,127.86,201.42,115.8,201.43Z" transform="translate(-74.43 -76.24)"/><path class="cls-1" d="M246.71,351.43q-15.17,0-30.33,0c-4.36,0-5.37-1.21-5.38-6.31q0-18.89,0-37.79c0-4.44,1.21-5.89,5.08-5.89q31,0,62,0c3.54,0,4.83,1.5,4.84,5.68q.06,19.42,0,38.86c0,4-1.31,5.43-5,5.44C267.55,351.45,257.13,351.42,246.71,351.43Z" transform="translate(-74.43 -76.24)"/><path class="cls-1" d="M892.15,201.43q-16,0-31.93,0c-4.6,0-6-1.44-6.05-6q0-19,0-38.05c0-4.38,1.53-5.89,6-5.89q32.19,0,64.39,0c4.26,0,5.69,1.47,5.7,5.82q0,19.29,0,38.58c0,4.17-1.38,5.56-5.63,5.58C913.79,201.45,903,201.42,892.15,201.43Z" transform="translate(-74.43 -76.24)"/><path class="cls-1" d="M388.74,126.25c-6.56,0-13.11,0-19.67,0-3.67,0-5.24-1.5-5.25-5.13q-.06-20,0-39.88c0-3.14,1.57-4.91,4.68-4.92q20.34-.14,40.68,0c3,0,4.6,1.9,4.62,5.3,0,7.62,0,15.24,0,22.86,0,5.32,0,10.64,0,16,0,4.42-1.44,5.83-5.93,5.85C401.5,126.27,395.12,126.25,388.74,126.25Z" transform="translate(-74.43 -76.24)"/><path class="cls-1" d="M74.44,101.13c0-6.47,0-12.94,0-19.41,0-3.8,1.51-5.43,5.23-5.45q19.81-.06,39.61,0c3.38,0,5.1,1.68,5.12,5.09q.09,20.07,0,40.14c0,3-1.65,4.69-4.63,4.7q-20.46.1-40.93,0c-2.88,0-4.36-1.73-4.38-4.88C74.4,114.6,74.44,107.86,74.44,101.13Z" transform="translate(-74.43 -76.24)"/><path class="cls-1" d="M195.49,101.54q0,9.57,0,19.14c0,4.07-1.4,5.55-5.36,5.56q-19.66,0-39.34,0c-3.61,0-5.26-1.56-5.27-5.15q-.08-19.94,0-39.87c0-3.1,1.63-4.9,4.72-4.92q20.34-.12,40.68,0c3,0,4.53,1.8,4.55,5C195.52,88.07,195.49,94.81,195.49,101.54Z" transform="translate(-74.43 -76.24)"/><path class="cls-1" d="M267.49,101.54q0,9.57,0,19.14c0,4.07-1.4,5.55-5.36,5.56q-19.66,0-39.34,0c-3.61,0-5.26-1.56-5.27-5.15q-.08-19.94,0-39.87c0-3.1,1.63-4.9,4.72-4.92q20.34-.12,40.68,0c3,0,4.53,1.8,4.55,5C267.52,88.07,267.49,94.81,267.49,101.54Z" transform="translate(-74.43 -76.24)"/><path class="cls-1" d="M633.18,101.32c0,6.56,0,13.11,0,19.67,0,3.68-1.48,5.23-5.13,5.24q-19.95.06-39.88,0c-3.27,0-4.94-1.6-4.95-4.91q-.11-20.07,0-40.14c0-3.1,1.65-4.86,4.76-4.88q20.34-.12,40.68,0c3,0,4.5,1.85,4.52,5.08C633.22,88,633.18,94.67,633.18,101.32Z" transform="translate(-74.43 -76.24)"/><path class="cls-1" d="M461.7,126.25c-6.47,0-12.94,0-19.41,0-3.72,0-5.37-1.57-5.39-5.31q-.09-19.68,0-39.34c0-3.68,1.7-5.31,5.46-5.32q19.66-.06,39.33,0c3.59,0,5.18,1.57,5.2,5.24q.06,19.93,0,39.87c0,3.32-1.58,4.82-5,4.85C475.17,126.29,468.43,126.25,461.7,126.25Z" transform="translate(-74.43 -76.24)"/><path class="cls-1" d="M181,176.17c0-6.48,0-12.95,0-19.43,0-3.63,1.49-5.27,5.13-5.29q20-.09,39.92,0c3.16,0,4.86,1.63,4.88,4.78q.14,20.36,0,40.72c0,3-1.81,4.41-5.17,4.45-6.65.07-13.31,0-20,0-6.21,0-12.42,0-18.63,0-4.94,0-6.17-1.23-6.18-6.09Q181,185.75,181,176.17Z" transform="translate(-74.43 -76.24)"/><path class="cls-1" d="M253,176.17c0-6.48,0-12.95,0-19.43,0-3.63,1.49-5.27,5.13-5.29q19.95-.09,39.92,0c3.16,0,4.86,1.63,4.88,4.78q.13,20.36,0,40.72c0,3-1.81,4.41-5.17,4.45-6.65.07-13.31,0-20,0-6.21,0-12.42,0-18.63,0-4.94,0-6.17-1.23-6.18-6.09Q253,185.75,253,176.17Z" transform="translate(-74.43 -76.24)"/><path class="cls-1" d="M352.9,201.42c-6.38,0-12.76,0-19.14,0-4.17,0-5.59-1.46-5.6-5.62q0-19.41,0-38.81c0-3.91,1.52-5.52,5.46-5.54q19.67-.08,39.34,0c3.58,0,5.18,1.67,5.19,5.26q0,19.81,0,39.61c0,3.55-1.55,5.05-5.32,5.09C366.19,201.47,359.54,201.42,352.9,201.42Z" transform="translate(-74.43 -76.24)"/><path class="cls-1" d="M534.8,126.25c-6.38,0-12.76,0-19.14,0-4.08,0-5.52-1.38-5.53-5.37q0-19.66,0-39.34c0-3.63,1.53-5.25,5.14-5.26q19.93-.07,39.87,0c3.46,0,5,1.83,5,5.8,0,10.1,0,20.2,0,30.3,0,2.93,0,5.85,0,8.77-.08,3.44-1.66,5-5.1,5.08C548.27,126.29,541.53,126.25,534.8,126.25Z" transform="translate(-74.43 -76.24)"/><path class="cls-1" d="M826.29,126.25c-6.47,0-12.94,0-19.41,0-3.85,0-5.34-1.46-5.35-5.27q0-19.81,0-39.61c0-3.39,1.6-5.06,5.06-5.08q19.95-.07,39.88,0c3.23,0,5,1.67,5,4.92q.1,20.2,0,40.4c0,3.11-1.81,4.61-5.24,4.64C839.58,126.28,832.94,126.25,826.29,126.25Z" transform="translate(-74.43 -76.24)"/><path class="cls-1" d="M754.29,126.25c-6.47,0-12.94,0-19.41,0-3.85,0-5.34-1.46-5.35-5.27q0-19.81,0-39.61c0-3.39,1.6-5.06,5.06-5.08q19.95-.07,39.88,0c3.23,0,5,1.67,5,4.92q.1,20.2,0,40.4c0,3.11-1.81,4.61-5.24,4.64C767.58,126.28,760.94,126.25,754.29,126.25Z" transform="translate(-74.43 -76.24)"/><path class="cls-1" d="M561.89,252c0,6.39,0,12.77,0,19.16,0,3.94-1.48,5.47-5.49,5.48q-19.56.07-39.12,0c-3.76,0-5.37-1.6-5.38-5.38q-.06-19.68,0-39.38c0-3.52,1.53-5.13,5-5.14q20.1-.09,40.19,0c3.27,0,4.75,1.61,4.78,5C561.93,238.47,561.89,245.22,561.89,252Z" transform="translate(-74.43 -76.24)"/><path class="cls-1" d="M826,176.65c0,6.48,0,12.95,0,19.43,0,3.73-1.4,5.29-5.08,5.31q-20,.09-39.92,0c-3.33,0-5-1.61-5-4.92q-.09-20.1,0-40.19c0-3.26,1.75-4.79,5.37-4.84,5.5-.07,11,0,16.5,0,7.45,0,14.91,0,22.36,0,4.26,0,5.73,1.51,5.75,5.79C826,163.7,826,170.17,826,176.65Z" transform="translate(-74.43 -76.24)"/><path class="cls-1" d="M754,176.65c0,6.48,0,12.95,0,19.43,0,3.73-1.4,5.29-5.08,5.31q-20,.09-39.92,0c-3.33,0-5-1.61-5-4.92q-.09-20.1,0-40.19c0-3.26,1.75-4.79,5.37-4.84,5.5-.07,11,0,16.5,0,7.45,0,14.91,0,22.36,0,4.26,0,5.73,1.51,5.75,5.79C754,163.7,754,170.17,754,176.65Z" transform="translate(-74.43 -76.24)"/><path class="cls-1" d="M628.91,176.25c0-6.48,0-12.95,0-19.43,0-3.74,1.52-5.36,5.33-5.38q19.69-.08,39.39,0c3.59,0,5.23,1.65,5.25,5.24q.06,19.83,0,39.66c0,3.34-1.52,5-4.85,5q-20.22.1-40.45,0c-3.16,0-4.63-1.64-4.65-4.89C628.87,189.73,628.91,183,628.91,176.25Z" transform="translate(-74.43 -76.24)"/><path class="cls-1" d="M927.55,101.5c0,6.47,0,12.94,0,19.41,0,3.83-1.45,5.32-5.29,5.33q-19.8,0-39.61,0c-3.28,0-5-1.57-5-4.84q-.12-20.2,0-40.41c0-3.27,1.92-4.72,5.75-4.73q17,0,34,0c1.6,0,3.19,0,4.79,0,3.79,0,5.35,1.55,5.38,5.31C927.58,88.21,927.55,94.86,927.55,101.5Z" transform="translate(-74.43 -76.24)"/><path class="cls-1" d="M461.84,226.67c6.48,0,13,0,19.43,0,4,0,5.47,1.49,5.48,5.48q0,19.56,0,39.12c0,3.62-1.52,5.3-5.14,5.31q-20,.1-39.92,0c-3.3,0-4.9-1.67-4.92-5q-.06-20.08,0-40.19c0-3.21,1.63-4.7,5.11-4.73C448.53,226.62,455.19,226.67,461.84,226.67Z" transform="translate(-74.43 -76.24)"/><path class="cls-1" d="M681.08,126.25c-6.47,0-13,0-19.42,0-3.67,0-5.28-1.46-5.3-5.12q-.12-20,0-39.92c0-3.29,1.67-4.9,5-4.92q20.1-.09,40.19,0c3.33,0,4.74,1.78,4.76,5.68,0,11.36,0,22.71,0,34.07,0,1.77,0,3.55,0,5.32-.13,3.33-1.62,4.84-5,4.87C694.57,126.29,687.83,126.25,681.08,126.25Z" transform="translate(-74.43 -76.24)"/><path class="cls-1" d="M553.74,176.41c0-6.48,0-12.95,0-19.43,0-4,1.47-5.52,5.43-5.54q19.7-.08,39.38,0c3.45,0,5.12,1.6,5.14,5.08q.12,20,0,39.92c0,3.32-1.6,4.92-5,4.94q-20.09.1-40.18,0c-3.33,0-4.77-1.57-4.8-5C553.7,189.71,553.74,183.06,553.74,176.41Z" transform="translate(-74.43 -76.24)"/><path class="cls-1" d="M637.06,251.84c0,6.39,0,12.77,0,19.16,0,4.14-1.45,5.59-5.64,5.61q-19.41,0-38.84,0c-3.93,0-5.47-1.55-5.49-5.54q-.06-19.54,0-39.11c0-3.69,1.51-5.26,5.15-5.27q19.95-.08,39.91,0c3.43,0,4.86,1.54,4.9,5.2C637.1,238.54,637.06,245.19,637.06,251.84Z" transform="translate(-74.43 -76.24)"/><path class="cls-1" d="M759.53,226.67c6.39,0,12.77,0,19.16,0,4,0,5.6,1.47,5.61,5.37q.09,19.68,0,39.38c0,3.48-1.56,5.14-5,5.16q-20.1.1-40.18,0c-3.18,0-4.7-1.62-4.71-4.86q-.09-20.22,0-40.45c0-3.11,1.57-4.54,4.94-4.58C746.05,226.62,752.79,226.67,759.53,226.67Z" transform="translate(-74.43 -76.24)"/><path class="cls-1" d="M758.78,301.67c9.07,0,18.13,0,27.2,0,5.67,0,7.94,1.47,8,5.37q.12,19.68,0,39.38c0,3.48-2.22,5.14-7.16,5.16q-28.51.1-57,0c-4.51,0-6.68-1.62-6.69-4.86q-.12-20.22,0-40.45c0-3.11,2.23-4.54,7-4.58C739.64,301.62,749.21,301.67,758.78,301.67Z" transform="translate(-74.43 -76.24)"/><path class="cls-1" d="M687.53,226.67c6.39,0,12.77,0,19.16,0,4,0,5.6,1.47,5.61,5.37q.09,19.68,0,39.38c0,3.48-1.56,5.14-5,5.16q-20.1.1-40.18,0c-3.18,0-4.7-1.62-4.71-4.86q-.09-20.22,0-40.45c0-3.11,1.57-4.54,4.94-4.58C674.05,226.62,680.79,226.67,687.53,226.67Z" transform="translate(-74.43 -76.24)"/><path class="cls-1" d="M361.63,251.31c0-6.48,0-12.95,0-19.43,0-3.71,1.41-5.18,5.15-5.19q20-.08,39.92,0c3.15,0,4.84,1.55,4.86,4.74q.14,20.22,0,40.45c0,3.14-1.76,4.64-5.22,4.71-3.9.09-7.8,0-11.71,0q-13.56,0-27.14,0c-4.5,0-5.87-1.38-5.88-5.88C361.61,264.26,361.63,257.78,361.63,251.31Z" transform="translate(-74.43 -76.24)"/><path class="cls-1" d="M528.46,176.67c0,6.39,0,12.77,0,19.16,0,4.09-1.36,5.56-5.36,5.57q-19.69.07-39.38,0c-3.63,0-5.2-1.53-5.22-5.22q-.09-19.83,0-39.65c0-3.45,1.62-5.06,5.14-5.08q20-.1,39.91,0c3.4,0,4.86,1.66,4.9,5.26C528.5,163.36,528.46,170,528.46,176.67Z" transform="translate(-74.43 -76.24)"/><path class="cls-1" d="M453.3,176.78c0,6.39,0,12.78,0,19.16,0,4-1.39,5.45-5.47,5.47q-19.56.06-39.13,0c-3.81,0-5.37-1.55-5.39-5.33q-.06-19.71,0-39.4c0-3.45,1.55-5.19,5-5.21q20.1-.14,40.19,0c3.25,0,4.77,1.71,4.8,5.09C453.34,163.29,453.3,170,453.3,176.78Z" transform="translate(-74.43 -76.24)"/><path class="cls-1" d="M214.41,251.44c0-6.39,0-12.77,0-19.16,0-4.21,1.37-5.6,5.59-5.61q19.55,0,39.11,0c3.67,0,5.23,1.44,5.25,5.15q.12,19.83,0,39.65c0,3.51-1.56,5.08-5.08,5.1q-20,.12-39.91,0c-3.43,0-4.91-1.59-4.95-5.2C214.36,264.74,214.42,258.09,214.41,251.44Z" transform="translate(-74.43 -76.24)"/><path class="cls-1" d="M286.41,251.44c0-6.39,0-12.77,0-19.16,0-4.21,1.37-5.6,5.59-5.61q19.55,0,39.11,0c3.67,0,5.23,1.44,5.25,5.15q.12,19.83,0,39.65c0,3.51-1.56,5.08-5.08,5.1q-19.95.12-39.91,0c-3.43,0-4.91-1.59-4.95-5.2C286.36,264.74,286.42,258.09,286.41,251.44Z" transform="translate(-74.43 -76.24)"/><path class="cls-1" d="M315.37,126.25c-6.48,0-12.95,0-19.43,0-3.69,0-5.22-1.42-5.24-5.16q-.09-19.81,0-39.65c0-3.6,1.62-5.14,5.29-5.16q19.69-.06,39.39,0c3.6,0,5.17,1.56,5.26,5.21.1,3.81,0,7.63,0,11.44,0,9.14,0,18.28,0,27.41,0,4.51-1.4,5.9-5.86,5.92C328.32,126.27,321.85,126.25,315.37,126.25Z" transform="translate(-74.43 -76.24)"/></svg>