<?xml version="1.0" encoding="utf-8"?>
<!-- Generator: Adobe Illustrator 22.1.0, SVG Export Plug-In . SVG Version: 6.00 Build 0)  -->
<svg version="1.1" id="Layer_1" xmlns="http://www.w3.org/2000/svg" xmlns:xlink="http://www.w3.org/1999/xlink" x="0px" y="0px"
	 viewBox="0 0 500 500" style="enable-background:new 0 0 500 500;" xml:space="preserve">
<style type="text/css">
	.st0{fill:#FFFFFF;}
</style>
<g>
	<path class="st0" d="M249.5,43c36,0,69.9,14,95.3,39.5c25.5,25.5,39.5,59.3,39.5,95.3c0,36-14,69.9-39.5,95.3
		c-25.5,25.5-59.3,39.5-95.3,39.5s-69.9-14-95.3-39.5c-25.5-25.5-39.5-59.3-39.5-95.3s14-69.9,39.5-95.3C179.6,57,213.5,43,249.5,43
		 M249.5,33c-80,0-144.8,64.8-144.8,144.8s64.8,144.8,144.8,144.8s144.8-64.8,144.8-144.8S329.5,33,249.5,33L249.5,33z"/>
</g>
<g>
	<path class="st0" d="M338.8,188.3c36,0,69.9,14,95.3,39.5c25.5,25.5,39.5,59.3,39.5,95.3s-14,69.9-39.5,95.3
		C408.6,444,374.8,458,338.8,458s-69.9-14-95.3-39.5c-25.5-25.5-39.5-59.3-39.5-95.3s14-69.9,39.5-95.3
		C268.9,202.4,302.8,188.3,338.8,188.3 M338.8,178.3c-80,0-144.8,64.8-144.8,144.8S258.8,468,338.8,468s144.8-64.8,144.8-144.8
		S418.8,178.3,338.8,178.3L338.8,178.3z"/>
</g>
<g>
	<path class="st0" d="M161.2,188.3c36,0,69.9,14,95.3,39.5s39.5,59.3,39.5,95.3c0,36-14,69.9-39.5,95.3
		C231.1,444,197.2,458,161.2,458s-69.9-14-95.3-39.5c-25.5-25.5-39.5-59.3-39.5-95.3s14-69.9,39.5-95.3
		C91.4,202.4,125.2,188.3,161.2,188.3 M161.2,178.3c-80,0-144.8,64.8-144.8,144.8S81.2,468,161.2,468s144.8-64.8,144.8-144.8
		S241.2,178.3,161.2,178.3L161.2,178.3z"/>
</g>
</svg>
