<svg id="Layer_1" data-name="Layer 1" xmlns="http://www.w3.org/2000/svg" viewBox="0 0 94 88.95"><title>logo</title><path d="M49.49,7.5A27.83,27.83,0,1,1,21.67,35.32,27.85,27.85,0,0,1,49.49,7.5m0-2.5A30.33,30.33,0,1,0,79.82,35.32,30.33,30.33,0,0,0,49.49,5Z" transform="translate(-3 -5)"/><path d="M66.68,35.8A27.83,27.83,0,1,1,38.85,63.62,27.85,27.85,0,0,1,66.68,35.8m0-2.5A30.33,30.33,0,1,0,97,63.62,30.33,30.33,0,0,0,66.68,33.3Z" transform="translate(-3 -5)"/><path d="M33.32,35.8A27.83,27.83,0,1,1,5.5,63.62,27.86,27.86,0,0,1,33.32,35.8m0-2.5A30.33,30.33,0,1,0,63.65,63.62,30.33,30.33,0,0,0,33.32,33.3Z" transform="translate(-3 -5)"/></svg>